# xmcd CD database file
#
# Track frame offsets:
#	150
#	12346
#	26070
#	38730
#	53783
#	72857
#	87546
#	107456
#	122425
#	137790
#	152340
#	164902
#	182021
#	197446
#
# Disc length: 2777 seconds
#
# Revision: 0
# Processed by: cddbd v1.5.2PL0 Copyright (c) Steve Scherf et al.
# Submitted via: CDex 1.70beta2
#
DISCID=b40ad70e
DTITLE=Electa Winter - On Her Own Country Road
DYEAR=1999
DGENRE=Country
TTITLE0=Goedenavond Vrienden
TTITLE1=Tennessee Flat Top Box
TTITLE2=Except For Monday
TTITLE3=Country Festival
TTITLE4=She's Lonely At Home
TTITLE5=Down At The Twist And Shout
TTITLE6=You Win My Love
TTITLE7=Nashville Tennessee
TTITLE8=Daddy's Hands
TTITLE9=Girls With Guitars
TTITLE10=Don't Fence Me In
TTITLE11=That's Me
TTITLE12=Life Number 9
TTITLE13=Time Has Come
EXTD=YEAR: 1999
EXTT0=
EXTT1=
EXTT2=
EXTT3=
EXTT4=
EXTT5=
EXTT6=
EXTT7=
EXTT8=
EXTT9=
EXTT10=
EXTT11=
EXTT12=
EXTT13=
PLAYORDER=
